<svg width="317" height="487" viewBox="0 0 317 487" fill="none" xmlns="http://www.w3.org/2000/svg">
<mask id="path-1-inside-1_12_9" fill="white">
<path fill-rule="evenodd" clip-rule="evenodd" d="M299.3 274.969L165.673 4.45686C162.737 -1.48564 154.263 -1.48562 151.327 4.45688L17.7 274.968C15.1043 279.549 12.7678 284.272 10.7083 289.122L9.87488 290.809C9.86051 290.838 9.88167 290.872 9.91412 290.872V290.872C9.94522 290.872 9.9664 290.904 9.95466 290.933C3.51837 306.715 0 323.798 0 341.633C0 421.73 70.9629 486.662 158.5 486.662C246.037 486.662 317 421.73 317 341.633C317 323.798 313.482 306.715 307.045 290.933C307.034 290.904 307.055 290.872 307.086 290.872V290.872C307.118 290.872 307.14 290.838 307.125 290.809L306.292 289.122C304.232 284.272 301.896 279.549 299.3 274.969Z"/>
</mask>
<path fill-rule="evenodd" clip-rule="evenodd" d="M299.3 274.969L165.673 4.45686C162.737 -1.48564 154.263 -1.48562 151.327 4.45688L17.7 274.968C15.1043 279.549 12.7678 284.272 10.7083 289.122L9.87488 290.809C9.86051 290.838 9.88167 290.872 9.91412 290.872V290.872C9.94522 290.872 9.9664 290.904 9.95466 290.933C3.51837 306.715 0 323.798 0 341.633C0 421.73 70.9629 486.662 158.5 486.662C246.037 486.662 317 421.73 317 341.633C317 323.798 313.482 306.715 307.045 290.933C307.034 290.904 307.055 290.872 307.086 290.872V290.872C307.118 290.872 307.14 290.838 307.125 290.809L306.292 289.122C304.232 284.272 301.896 279.549 299.3 274.969Z" fill="#8EAEFF"/>
<path d="M299.3 274.969L281.369 283.826L281.62 284.335L281.9 284.829L299.3 274.969ZM17.7 274.968L35.1005 284.828L35.3802 284.335L35.6315 283.826L17.7 274.968ZM10.7083 289.122L28.6398 297.98L28.8933 297.467L29.1171 296.94L10.7083 289.122ZM306.292 289.122L287.883 296.94L288.107 297.466L288.36 297.98L306.292 289.122ZM307.045 290.933L288.526 298.485L307.045 290.933ZM9.87488 290.809L27.8064 299.667L9.87488 290.809ZM307.125 290.809L289.194 299.667L307.125 290.809ZM9.95466 290.933L28.4738 298.485L9.95466 290.933ZM165.673 4.45686L147.741 13.3147L165.673 4.45686ZM151.327 4.45688L133.396 -4.40094L151.327 4.45688ZM147.741 13.3147L281.369 283.826L317.232 266.111L183.604 -4.40096L147.741 13.3147ZM35.6315 283.826L169.259 13.3147L133.396 -4.40094L-0.231535 266.111L35.6315 283.826ZM29.1171 296.94C30.8755 292.799 32.8743 288.757 35.1005 284.828L0.299453 265.108C-2.66562 270.341 -5.33986 275.746 -7.70055 281.305L29.1171 296.94ZM27.8064 299.667L28.6398 297.98L-7.22325 280.264L-8.05663 281.951L27.8064 299.667ZM20 341.633C20 326.457 22.9887 311.935 28.4738 298.485L-8.56445 283.38C-15.9519 301.494 -20 321.138 -20 341.633H20ZM158.5 466.662C80.2994 466.662 20 409.049 20 341.633H-20C-20 434.411 61.6263 506.662 158.5 506.662V466.662ZM297 341.633C297 409.049 236.701 466.662 158.5 466.662V506.662C255.374 506.662 337 434.411 337 341.633H297ZM288.526 298.485C294.011 311.935 297 326.457 297 341.633H337C337 321.138 332.952 301.494 325.564 283.38L288.526 298.485ZM288.36 297.98L289.194 299.667L325.057 281.952L324.223 280.264L288.36 297.98ZM281.9 284.829C284.126 288.757 286.124 292.799 287.883 296.94L324.7 281.304C322.34 275.745 319.666 270.341 316.701 265.109L281.9 284.829ZM325.564 283.38C330.918 296.507 321.261 310.872 307.086 310.872V270.872C292.849 270.872 283.149 285.301 288.526 298.485L325.564 283.38ZM-8.05663 281.951C-14.6371 295.273 -4.94382 310.872 9.91412 310.872V270.872C24.7072 270.872 34.3581 286.404 27.8064 299.667L-8.05663 281.951ZM307.086 310.872C321.944 310.872 331.637 295.273 325.057 281.952L289.194 299.667C282.642 286.404 292.293 270.872 307.086 270.872V310.872ZM9.91412 310.872C-4.26249 310.872 -13.9174 296.505 -8.56445 283.38L28.4738 298.485C33.8502 285.302 24.1529 270.872 9.91412 270.872V310.872ZM183.604 -4.40096C173.33 -25.1998 143.67 -25.1996 133.396 -4.40094L169.259 13.3147C164.856 22.2284 152.144 22.2285 147.741 13.3147L183.604 -4.40096Z" fill="black" mask="url(#path-1-inside-1_12_9)"/>
<path d="M124.05 379C121.85 379 120 378.25 118.5 376.75C117.1 375.25 116.4 373.45 116.4 371.35C116.4 369.25 117 367.55 118.2 366.25L197.1 264.85C198 263.85 198.95 263.1 199.95 262.6C201.05 262.1 202.15 261.85 203.25 261.85C205.45 261.85 207.3 262.6 208.8 264.1C210.3 265.6 211.05 267.4 211.05 269.5C211.05 271.2 210.5 272.75 209.4 274.15L129.75 376.6C128.25 378.2 126.35 379 124.05 379ZM133.05 321.7C127.55 321.7 122.5 320.35 117.9 317.65C113.4 314.85 109.8 311.2 107.1 306.7C104.4 302.2 103.05 297.25 103.05 291.85C103.05 286.45 104.4 281.5 107.1 277C109.8 272.4 113.4 268.75 117.9 266.05C122.5 263.25 127.55 261.85 133.05 261.85C138.55 261.85 143.55 263.25 148.05 266.05C152.55 268.75 156.15 272.4 158.85 277C161.55 281.5 162.9 286.45 162.9 291.85C162.9 297.25 161.55 302.2 158.85 306.7C156.15 311.2 152.55 314.85 148.05 317.65C143.55 320.35 138.55 321.7 133.05 321.7ZM133.05 306.4C135.75 306.4 138.2 305.75 140.4 304.45C142.6 303.15 144.35 301.4 145.65 299.2C146.95 296.9 147.6 294.45 147.6 291.85C147.6 289.15 146.9 286.7 145.5 284.5C144.2 282.3 142.45 280.55 140.25 279.25C138.05 277.85 135.65 277.15 133.05 277.15C130.35 277.15 127.85 277.85 125.55 279.25C123.35 280.55 121.6 282.3 120.3 284.5C119 286.7 118.35 289.15 118.35 291.85C118.35 294.45 119 296.9 120.3 299.2C121.6 301.4 123.35 303.15 125.55 304.45C127.85 305.75 130.35 306.4 133.05 306.4ZM193.95 379C188.55 379 183.55 377.65 178.95 374.95C174.45 372.25 170.85 368.65 168.15 364.15C165.45 359.55 164.1 354.55 164.1 349.15C164.1 343.65 165.45 338.65 168.15 334.15C170.85 329.65 174.45 326.05 178.95 323.35C183.45 320.65 188.45 319.3 193.95 319.3C199.35 319.3 204.3 320.65 208.8 323.35C213.4 325.95 217.05 329.5 219.75 334C222.55 338.5 223.95 343.55 223.95 349.15C223.95 354.65 222.55 359.65 219.75 364.15C217.05 368.65 213.45 372.25 208.95 374.95C204.45 377.65 199.45 379 193.95 379ZM193.95 363.7C196.65 363.7 199.1 363.05 201.3 361.75C203.6 360.45 205.4 358.7 206.7 356.5C208 354.2 208.65 351.75 208.65 349.15C208.65 346.45 208 344 206.7 341.8C205.4 339.6 203.6 337.85 201.3 336.55C199.1 335.25 196.65 334.6 193.95 334.6C191.35 334.6 188.9 335.25 186.6 336.55C184.4 337.85 182.65 339.6 181.35 341.8C180.05 344 179.4 346.45 179.4 349.15C179.4 351.75 180.05 354.2 181.35 356.5C182.65 358.7 184.4 360.45 186.6 361.75C188.9 363.05 191.35 363.7 193.95 363.7Z" fill="black"/>
</svg>
