<svg width="468" height="487" viewBox="0 0 468 487" fill="none" xmlns="http://www.w3.org/2000/svg">
<rect y="456.938" width="390" height="30.0617" rx="12" fill="black"/>
<rect x="79" y="352.724" width="311" height="30.0617" rx="12" fill="black"/>
<rect y="406.835" width="301" height="30.0617" rx="12" fill="black"/>
<path d="M361.686 368.722C360.103 375.158 364.044 381.767 370.648 382.309C378.332 382.94 386.091 382.383 393.649 380.634C405.119 377.98 415.804 372.658 424.84 365.098C433.877 357.539 441.01 347.954 445.664 337.12C450.318 326.285 452.362 314.505 451.63 302.732C450.898 290.96 447.411 279.525 441.45 269.353C435.49 259.181 427.224 250.558 417.321 244.181C407.418 237.804 396.157 233.853 384.447 232.646C376.722 231.85 368.945 232.264 361.391 233.85C354.915 235.21 351.835 242.244 354.202 248.429L356.273 253.839C358.646 260.039 365.626 262.961 372.226 262.293C375.267 261.985 378.342 261.986 381.404 262.301C388.469 263.029 395.263 265.413 401.238 269.261C407.213 273.108 412.2 278.311 415.796 284.448C419.392 290.585 421.496 297.484 421.937 304.586C422.379 311.689 421.146 318.797 418.338 325.333C415.53 331.87 411.226 337.653 405.774 342.214C400.322 346.775 393.876 349.985 386.956 351.587C383.952 352.282 380.895 352.665 377.833 352.737C371.209 352.892 364.658 356.647 363.074 363.083L361.686 368.722Z" fill="black"/>
<path d="M184.393 316.279C190.251 322.137 199.749 322.137 205.607 316.279L301.066 220.82C306.924 214.962 306.924 205.464 301.066 199.607C295.208 193.749 285.711 193.749 279.853 199.607L195 284.459L110.147 199.607C104.289 193.749 94.7918 193.749 88.934 199.607C83.0761 205.464 83.0761 214.962 88.934 220.82L184.393 316.279ZM180 0V305.673H210V0L180 0Z" fill="black"/>
</svg>
